<svg id="Layer_1" data-name="Layer 1" xmlns="http://www.w3.org/2000/svg" viewBox="0 0 593.39 119.01"><path d="M22,121.45a24.17,24.17,0,0,1-10.06-7.2,15.87,15.87,0,0,1-3.52-10v-1.35a1.73,1.73,0,0,1,1.95-1.95H16.8a2.45,2.45,0,0,1,1.43.38,1.17,1.17,0,0,1,.52,1v1.35q0,5,5.1,8.63t12.9,3.67q7.8,0,12.6-3.52a10.68,10.68,0,0,0,4.8-8.93,8.36,8.36,0,0,0-2.4-6.15,17,17,0,0,0-5.85-3.75c-2.3-.9-5.75-2-10.35-3.45a104.42,104.42,0,0,1-13.8-4.8,26,26,0,0,1-9.15-6.67A15.88,15.88,0,0,1,8.85,67.75a18.19,18.19,0,0,1,7.57-15.3Q24,46.76,36.3,46.75a37.19,37.19,0,0,1,14.62,2.7,22.84,22.84,0,0,1,9.83,7.43A17.49,17.49,0,0,1,64.2,67.45a1.72,1.72,0,0,1-2,2H56.1c-1.3,0-2-.34-2-1.05v-.9q0-5.09-4.88-8.55T36.15,55.45q-7.65,0-12.3,3.08A9.63,9.63,0,0,0,19.2,67a8.59,8.59,0,0,0,4.43,7.8Q28,77.5,37.5,80.2a124.36,124.36,0,0,1,14.1,4.65,25.64,25.64,0,0,1,9.3,6.6,16.25,16.25,0,0,1,3.9,11.25,18.73,18.73,0,0,1-7.57,15.6q-7.59,5.85-20.33,5.85A38.73,38.73,0,0,1,22,121.45Z" transform="translate(-8.4 -5.6)"/><path d="M121,56.35H104.61a.66.66,0,0,0-.75.75v43.8q0,7.2,3.22,10.13T117.21,114h3.3a1.73,1.73,0,0,1,1.95,2v5.25a1.87,1.87,0,0,1-1.95,2.1h-5.1q-10.8,0-16.35-4t-5.55-15V57.1a.66.66,0,0,0-.75-.75H84.21a1.72,1.72,0,0,1-1.95-2V49.45a1.73,1.73,0,0,1,1.95-2h8.55a.66.66,0,0,0,.75-.75V30A1.73,1.73,0,0,1,95.46,28h6.45a1.73,1.73,0,0,1,2,1.95v16.8a.66.66,0,0,0,.75.75H121a1.73,1.73,0,0,1,2,2V54.4A1.72,1.72,0,0,1,121,56.35Z" transform="translate(-8.4 -5.6)"/><path d="M184.39,48.55a1.8,1.8,0,0,1,1.05,2.4l-1.5,6.6c-.3,1.2-1.1,1.61-2.4,1.2a22.7,22.7,0,0,0-7.35-.75,17.91,17.91,0,0,0-12.9,5.78,19.56,19.56,0,0,0-5.1,13.87v43.8a1.72,1.72,0,0,1-1.95,2h-6.75a1.72,1.72,0,0,1-2-2v-72a1.73,1.73,0,0,1,2-2h6.75a1.73,1.73,0,0,1,1.95,2v8.4c0,.4.08.63.23.68s.32-.08.52-.38a23.67,23.67,0,0,1,8-8.4,20.87,20.87,0,0,1,11.17-3A17.07,17.07,0,0,1,184.39,48.55Z" transform="translate(-8.4 -5.6)"/><path d="M244.8,112.38a19.89,19.89,0,0,0,7.57-8.18,1.87,1.87,0,0,1,1-1,1.64,1.64,0,0,1,1.5.15l4.35,2.4q1.8,1.06.9,2.55a27.89,27.89,0,0,1-10.8,11.93,32,32,0,0,1-17.1,4.42q-10.5,0-17.7-4.95a27.31,27.31,0,0,1-10.35-13.8q-2.85-7.48-2.85-20.7c0-4.29.08-7.72.23-10.27a35,35,0,0,1,1.12-7.13A27.79,27.79,0,0,1,213,52.15q7.73-5.85,18.67-5.85,13.05,0,20.48,6.75t9.52,19a89.82,89.82,0,0,1,.9,15,1.72,1.72,0,0,1-1.95,2h-48a.67.67,0,0,0-.75.75,47.57,47.57,0,0,0,.9,11,18.41,18.41,0,0,0,7,10.73q5.33,4,13.42,4A23.13,23.13,0,0,0,244.8,112.38ZM219.37,59.43a17.89,17.89,0,0,0-6.3,10.27,46.84,46.84,0,0,0-1.2,10.2.66.66,0,0,0,.75.75h38.55a.66.66,0,0,0,.75-.75,71,71,0,0,0-.9-9.6,18.93,18.93,0,0,0-6.67-10.72q-5-4-12.68-4Q224.17,55.6,219.37,59.43Z" transform="translate(-8.4 -5.6)"/><path d="M328,112.38a19.92,19.92,0,0,0,7.58-8.18,1.87,1.87,0,0,1,1.05-1,1.64,1.64,0,0,1,1.5.15l4.35,2.4q1.8,1.06.9,2.55a27.89,27.89,0,0,1-10.8,11.93,32,32,0,0,1-17.1,4.42q-10.5,0-17.7-4.95a27.31,27.31,0,0,1-10.35-13.8q-2.85-7.48-2.85-20.7c0-4.29.07-7.72.22-10.27a35,35,0,0,1,1.13-7.13,27.78,27.78,0,0,1,10.27-15.6q7.72-5.85,18.68-5.85,13,0,20.47,6.75t9.53,19a89.82,89.82,0,0,1,.9,15,1.72,1.72,0,0,1-1.95,2h-48a.67.67,0,0,0-.75.75,47.57,47.57,0,0,0,.9,11,18.39,18.39,0,0,0,7,10.73q5.32,4,13.43,4A23.09,23.09,0,0,0,328,112.38ZM302.55,59.43a17.89,17.89,0,0,0-6.3,10.27,46.84,46.84,0,0,0-1.2,10.2.66.66,0,0,0,.75.75h38.55a.66.66,0,0,0,.75-.75,71,71,0,0,0-.9-9.6,19,19,0,0,0-6.68-10.72q-5-4-12.67-4T302.55,59.43Z" transform="translate(-8.4 -5.6)"/><path d="M401.08,56.35H384.73a.66.66,0,0,0-.75.75v43.8q0,7.2,3.23,10.13T397.33,114h3.3a1.73,1.73,0,0,1,1.95,2v5.25a1.87,1.87,0,0,1-1.95,2.1h-5.1q-10.8,0-16.35-4t-5.55-15V57.1a.66.66,0,0,0-.75-.75h-8.55a1.72,1.72,0,0,1-1.95-2V49.45a1.73,1.73,0,0,1,1.95-2h8.55a.66.66,0,0,0,.75-.75V30A1.73,1.73,0,0,1,375.58,28H382A1.73,1.73,0,0,1,384,30v16.8a.66.66,0,0,0,.75.75h16.35a1.73,1.73,0,0,1,1.95,2V54.4A1.72,1.72,0,0,1,401.08,56.35Z" transform="translate(-8.4 -5.6)"/><path d="M515.59,123.4H490.84L485.4,98.49H454.05L448.6,123.4H423.85L455,5.6h29.37Zm-45.7-97.34h-.33L458.17,79h23.1Z" transform="translate(-8.4 -5.6)"/><path d="M542.55,5.6l16.67,87.11h.49L577.2,5.6h24.59L574.73,123.4H544.2L517.14,5.6Z" transform="translate(-8.4 -5.6)"/></svg>